<svg id="Capa_1" data-name="Capa 1" xmlns="http://www.w3.org/2000/svg" viewBox="0 0 153.65 249.58"><defs><style>.cls-1,.cls-6,.cls-7{fill:#fff;}.cls-2{fill:#eaf6f6;}.cls-10,.cls-11,.cls-2,.cls-3,.cls-4,.cls-5,.cls-6,.cls-8,.cls-9{fill-rule:evenodd;}.cls-3{fill:#e6e7e8;}.cls-4{fill:#fff584;}.cls-5{fill:#002946;}.cls-7{stroke:#fff;stroke-miterlimit:22.93;stroke-width:0.57px;}.cls-8{fill:#dddcdb;}.cls-9{fill:#8e9191;}.cls-10{fill:#c1c3c2;}.cls-11{fill:#231f20;}</style></defs><rect class="cls-1" x="648.14" y="603.37" width="9.92" height="17.25" transform="translate(-761.91 523.24) rotate(-61.65)"/><rect class="cls-1" x="657.13" y="602.26" width="9.57" height="23.74" transform="translate(-665.1 727.59) rotate(-75.45)"/><rect class="cls-1" x="687.14" y="527.55" width="39.89" height="9.98" transform="translate(-419.44 844.95) rotate(-87.72)"/><rect class="cls-1" x="648.48" y="463.08" width="9.57" height="14.4" transform="translate(-699.18 270.2) rotate(-48.15)"/><rect class="cls-1" x="691.09" y="476.66" width="9.57" height="14.4" transform="matrix(0.67, -0.74, 0.74, 0.67, -695.11, 306.46)"/><rect class="cls-1" x="649.4" y="462.33" width="46.13" height="67.86" transform="translate(-712.14 293.15) rotate(-48.15)"/><rect class="cls-1" x="634.62" y="455.5" width="46.13" height="108.88" transform="translate(-727.25 286.7) rotate(-48.15)"/><path class="cls-2" d="M581.29,493.18a1.1,1.1,0,0,1,0-1.54,1.09,1.09,0,0,1,1.59,1.48A1.1,1.1,0,0,1,581.29,493.18Z" transform="translate(-566.29 -372.94)"/><path class="cls-3" d="M643,402.05A31,31,0,1,1,610.05,373,31,31,0,0,1,643,402.05Z" transform="translate(-566.29 -372.94)"/><path class="cls-4" d="M649.2,539s-12.5,13.29-29.92,15.25c0,0-29.36,4.11-45.92-26.46,0,0-3.78-21.69-1.12-32.51,0,0,12.1-26.17,11.84-28.74l7.24-23.69s.68-10.87,5.22-11l32.51-1.11s5.94-.29,6.24,8.53c0,0,7.27,22.93,11.49,29,0,0,13.5,26.48,13.79,34.87C660.57,503.13,666.35,518.66,649.2,539Z" transform="translate(-566.29 -372.94)"/><path class="cls-5" d="M628.41,433.34a92,92,0,0,0-4.67,13.3A167.53,167.53,0,0,0,619,467.15c-1,6-1.78,12.48-.55,18.51a10.76,10.76,0,0,0,2.55,5.5c1.47,1.49,4.3,2.75,6.28,1.68,2.32-1.27,2.37-4.65,1.9-6.85a12.62,12.62,0,0,0-5.06-7.84c-2.54-1.66-6.3-1.71-9.2-1.42-3.17.32-6.51,1.58-8.48,4.2a9.51,9.51,0,0,0-1.17,9.36c.86,2.16,3.24,4.12,5.66,3.32s3.24-3.77,3.21-6a15.82,15.82,0,0,0-5.41-10.87,7.39,7.39,0,0,0-7.67-1.36c-3.09,1.27-4.76,4.83-5.68,7.8-.65,2.11-2.09,7.81.49,9.31,2,1.16,4.32-2.82,5-4.07,2-3.74,2.26-8.36,2.61-12.49a94.19,94.19,0,0,0-.05-14.45c-.71-9.83-2.51-19.54-3.12-29.38,0-.87-1.47,1-1.43,1.65.66,10.68,2.68,21.23,3.27,31.92a82,82,0,0,1-.73,16.87c-.36,2.45-.8,5.09-2.47,7-1.26,1.47-2.53.68-2.85-1-.88-4.42,1.29-11.2,6.44-11.58,4.15-.31,7.26,3.7,8.74,7.06.87,2,1.84,4.34,1.32,6.55-.31,1.27-2.33,1-3.17.66-3.31-1.28-4.6-6.77-2.38-9.4,2.37-2.81,7.09-3.2,10.48-3s6.3,1.39,8.28,4.3a14,14,0,0,1,2,4.85,7.78,7.78,0,0,1,.15,2.26c-.08.81-1.06.74-1.69.71a6.76,6.76,0,0,1-5.35-3.82c-2.56-5-1.73-11.73-1.11-17A142.69,142.69,0,0,1,624.19,449c1.4-5.06,2.87-10.5,5.07-15.19C629.88,432.49,629,432,628.41,433.34Z" transform="translate(-566.29 -372.94)"/><path class="cls-6" d="M578.29,488.23c10.64-20.81,13.84-33.09,15.56-46.15.19-1.45.77-5.88,2-7.32.44-.5,1.31-1,4.49-1.12l13.45-.47,13.46-.46c3.17-.1,4.08.35,4.55.82,1.36,1.35,2.25,5.72,2.54,7.16,2.61,12.91,6.64,24.94,18.67,45a44.28,44.28,0,0,1,6.53,21.42,43.2,43.2,0,0,1-86.34,3,44.28,44.28,0,0,1,5-21.81ZM618,556a47.48,47.48,0,0,0,45.82-49.07,48.87,48.87,0,0,0-7.14-23.48c-12.37-20.59-15.86-32.27-18.15-43.61-1.92-9.51-4.2-11.66-11.43-11.41l-13.45.46-13.46.46c-7.23.25-9.36,2.55-10.62,12.16-1.51,11.48-4.19,23.37-15.13,44.76a48.81,48.81,0,0,0-5.52,23.9A47.49,47.49,0,0,0,618,556Z" transform="translate(-566.29 -372.94)"/><rect class="cls-7" x="60.99" y="98.18" width="31.85" height="61.19" rx="13.8"/><path class="cls-6" d="M642.07,520.64c1.77-1.56,10.14-10.09.37-24.31a2.19,2.19,0,0,1,.57-3.07,2.13,2.13,0,0,1,1.17-.39,2.2,2.2,0,0,1,1.9.95C658,511.12,647.26,522,645,524a2.21,2.21,0,1,1-2.92-3.32Z" transform="translate(-566.29 -372.94)"/><path class="cls-8" d="M665.48,510.32a5.38,5.38,0,0,1-4.73-5.35V483.29a5.39,5.39,0,0,1,4.73-5.35V467.09a41.77,41.77,0,0,0-29.07,12.35v8a29.72,29.72,0,0,0,29.07,29.71Z" transform="translate(-566.29 -372.94)"/><path class="cls-9" d="M666.14,508.78a4,4,0,0,1-3.82-4.13v-21a3.83,3.83,0,1,1,7.64,0v21A4,4,0,0,1,666.14,508.78Z" transform="translate(-566.29 -372.94)"/><path class="cls-8" d="M697,480.64v6.82a30.86,30.86,0,0,1-30.18,30.85h-.21v0h-1v0h-.2a30.86,30.86,0,0,1-30.19-30.85v-6.82a41.77,41.77,0,0,0-11,28.34v66.64a41.91,41.91,0,0,0,83.82,0V509A41.72,41.72,0,0,0,697,480.64Z" transform="translate(-566.29 -372.94)"/><path class="cls-8" d="M666.8,467.09v10.85a5.4,5.4,0,0,1,4.74,5.35V505a5.39,5.39,0,0,1-4.74,5.35v6.85a29.71,29.71,0,0,0,29.07-29.71v-8A41.75,41.75,0,0,0,666.8,467.09Z" transform="translate(-566.29 -372.94)"/><path class="cls-10" d="M624.23,509v66.64a41.85,41.85,0,0,0,15.12,32.23c0-1.28,0-2.56,0-3.85,0-41.39-5.31-83.38-13.53-106.51A41.85,41.85,0,0,0,624.23,509Z" transform="translate(-566.29 -372.94)"/><path class="cls-10" d="M692.93,607.85a41.82,41.82,0,0,0,15.12-32.23V509a41.85,41.85,0,0,0-1.6-11.49c-8.22,23.13-13.54,65.12-13.54,106.51C692.91,605.29,692.92,606.57,692.93,607.85Z" transform="translate(-566.29 -372.94)"/><path class="cls-10" d="M666.14,612.59a41.91,41.91,0,0,1-41.91-41.91v4.94a41.91,41.91,0,0,0,83.82,0v-4.94A41.91,41.91,0,0,1,666.14,612.59Z" transform="translate(-566.29 -372.94)"/><path class="cls-11" d="M624.23,533c-.49-28.31-7.44-62.84,26.34-74.87,30-10.67,57.29,12.89,65,40.69,9.93,36,5.52,110.5-38.91,122.28-19.53,5.17-31.83-4.85-43-19.08,8.31,8.22,15.06,14.7,27.63,15.53,47.93,3.18,56-91.78,40.59-125.35-12.19-26.52-46.19-35-65-14.7C625.37,490,626,516.42,624.23,533Z" transform="translate(-566.29 -372.94)"/><path class="cls-11" d="M644.62,511.55c.65,18.12-1.89,33.58-19.36,43.05C598.18,569.29,570.41,545.92,567,516c-4.66-40.29,16.85-53.87,21.49-81.13l1-9.53c2.5,25.48-4.44,37.59-9.88,62-6,27,0,65.16,35,60.16C635.77,544.44,641.48,530.65,644.62,511.55Z" transform="translate(-566.29 -372.94)"/><path class="cls-5" d="M591.14,417.81l42.54-1.46a3,3,0,0,0,3.1-2.75l-.07-1.75a3,3,0,0,0-3.27-2.54l-42.54,1.46a3,3,0,0,0-3.1,2.75l.06,1.76A3,3,0,0,0,591.14,417.81Z" transform="translate(-566.29 -372.94)"/><path class="cls-5" d="M590.86,409.85l42.54-1.46a3,3,0,0,0,3.1-2.75l-.06-1.76a3,3,0,0,0-3.28-2.53l-42.54,1.46a3,3,0,0,0-3.1,2.75l.06,1.75A3,3,0,0,0,590.86,409.85Z" transform="translate(-566.29 -372.94)"/><path class="cls-5" d="M590.59,401.88l42.54-1.45a3,3,0,0,0,3.1-2.75l-.06-1.76a3,3,0,0,0-3.28-2.53l-42.54,1.46a3,3,0,0,0-3.1,2.74l.06,1.76A3,3,0,0,0,590.59,401.88Z" transform="translate(-566.29 -372.94)"/><path class="cls-5" d="M627.54,392.65l-31.9,1.09c-.18-5.28,8.2-9.09,15.65-9.34S627.36,387.37,627.54,392.65Z" transform="translate(-566.29 -372.94)"/></svg>